inDegrees=yes
name=ik_lifting_orientations
DataType=double
version=3
OpenSimVersion=4.5-2024-01-10-34fd6af
endheader
time	pelvis_tilt	pelvis_list	pelvis_rotation	pelvis_tx	pelvis_ty	pelvis_tz	hip_flexion_r	hip_adduction_r	hip_rotation_r	knee_angle_r	knee_angle_r_beta	ankle_angle_r	subtalar_angle_r	mtp_angle_r	hip_flexion_l	hip_adduction_l	hip_rotation_l	knee_angle_l	knee_angle_l_beta	ankle_angle_l	subtalar_angle_l	mtp_angle_l	lumbar_extension	lumbar_bending	lumbar_rotation	arm_flex_r	arm_add_r	arm_rot_r	elbow_flex_r	pro_sup_r	wrist_flex_r	wrist_dev_r	arm_flex_l	arm_add_l	arm_rot_l	elbow_flex_l	pro_sup_l	wrist_flex_l	wrist_dev_l
0.54	-0.1938842526742885	1.742115623217058	-89.98165007539677	0	0.9399999998679526	0	44.99076850381216	-11.42126029904924	0	59.99611680184019	1.047129776603202	-5.660559796846156	0	0	44.99076850381216	-11.42126029904924	0	59.99611680184019	1.047129776603202	-5.660559796846156	0	0	-12.74097427437076	0.3349470497322649	-1.06726116518773	9.303839728659558	-13.97776734525136	0.6278906755875251	23.72477370223904	2.467170320919986	0	0	0	-10.40770166321043	0	87.58169858209517	2.467170320919986	0	0
0.55	-0.2041982836313771	2.369310973624127	-89.10593542581594	0	0.9399999998679526	0	44.99077152467727	-11.41964086526276	0	59.99611783908762	1.047129794706585	-5.659579779230631	0	0	44.99077152467727	-11.41964086526276	0	59.99611783908762	1.047129794706585	-5.659579779230631	0	0	-13.05317954874283	0.6662429038544075	-1.844089279255453	9.776375043546656	-14.3816883894753	0.001186624865637475	24.32725537380069	2.466607410579764	0	0	0	-10.40847443230828	0	87.58225028793672	2.466607410579764	0	0
0.5600000000000001	-0.2209034173054715	2.749079896954266	-88.43457416959639	0	0.9399999998679526	0	44.99077980608839	-11.41521226097287	0	59.99612067728132	1.047129844242409	-5.656904150667504	0	0	44.99077980608839	-11.41521226097287	0	59.99612067728132	1.047129844242409	-5.656904150667504	0	0	-14.40348200335729	1.305024198707243	-2.625694649208355	11.32236191271107	-15.00177288196077	-0.02062550200131178	24.9944342187576	2.465064858396524	0	0	0	-10.41059085070175	0	87.58376213614405	2.465064858396524	0	0
0.57	-0.1486967376708128	2.497969725897497	-87.62196246642438	0	0.9399999998679526	0	44.99078383400635	-11.41305452169544	0	59.99612205779911	1.04712986833699	-5.655599547535767	0	0	44.99078383400635	-11.41305452169544	0	59.99612205779911	1.04712986833699	-5.655599547535767	0	0	-16.35684431232542	1.960095573640046	-3.530164133956454	12.97308956240756	-15.64790382250524	0.434610090120874	25.46364734086984	2.464314600938824	0	0	0	-10.41162034691085	0	87.58449746000045	2.464314600938824	0	0
0.58	-0.05212941110450221	1.911600666677549	-86.50457602419691	0	0.9399999998679526	0	44.99079285108382	-11.40827766397131	0	59.99612516268527	1.047129922527477	-5.652721275442874	0	0	44.99079285108382	-11.40827766397131	0	59.99612516268527	1.047129922527477	-5.652721275442874	0	0	-18.51030424357773	2.55616500562	-4.600454134345134	14.46310383115312	-16.18650676667399	0.3575726784471494	26.17179278906806	2.462631406434834	0	0	0	-10.41393365985912	0	87.58614715165859	2.462631406434834	0	0
0.59	0.05022652848957161	1.32472106801045	-85.37886430148875	0	0.9399999998679526	0	44.9908048620113	-11.40189297227525	0	59.99612927978217	1.047129994384373	-5.648873900006193	0	0	44.9908048620113	-11.40189297227525	0	59.99612927978217	1.047129994384373	-5.648873900006193	0	0	-21.52268607624742	3.292700807743364	-5.650847726873507	16.94635116550036	-16.59992047608098	0.7165147723244392	26.74257613749223	2.460392747834853	0	0	0	-10.41700621109626	0	87.58834125080061	2.460392747834853	0	0
0.6	0.1209769295071031	0.9545259762018888	-84.8159371358505	0	0.9399999998679526	0	44.99081357590241	-11.39729631183694	0	59.9961322787485	1.04713004672621	-5.64610989838839	0	0	44.99081357590241	-11.39729631183694	0	59.9961322787485	1.04713004672621	-5.64610989838839	0	0	-24.33299444656823	3.932099709725718	-6.115604692681353	19.4399787141671	-17.04538458629197	0.4131733541824009	27.51614310768083	2.458765669591417	0	0	0	-10.41924259901078	0	87.58993594326873	2.458765669591417	0	0
0.61	0.09879911241370573	0.7168012634304777	-85.51189119637273	0	0.9399999998679526	0	44.99082346738452	-11.39205601451766	0	59.99613566763987	1.047130105873522	-5.642957414608034	0	0	44.99082346738452	-11.39205601451766	0	59.99613566763987	1.047130105873522	-5.642957414608034	0	0	-26.77320707690518	4.037346912558733	-5.387241120488012	21.37290489131775	-16.83877877793951	-0.002711069673383067	28.25759536514068	2.45692161952528	0	0	0	-10.42177373851644	0	87.59174328849043	2.45692161952528	0	0
0.62	0.08342800413603499	0.4486236062854819	-86.19088043588751	0	0.9399999998679526	0	44.99083507243396	-11.38595429203759	0	59.99613965554781	1.047130175475646	-5.639295538877509	0	0	44.99083507243396	-11.38595429203759	0	59.99613965554781	1.047130175475646	-5.639295538877509	0	0	-29.40221332045714	4.648171276845135	-4.942133202807652	24.44623177862001	-16.99787240367592	0.871416971515004	28.6663358875229	2.454754891220752	0	0	0	-10.42475109859533	0	87.59386688970989	2.454754891220752	0	0
0.63	-0.005945672642230887	0.4983360980919343	-87.81300869731035	0	0.9399999998679526	0	44.99097158756544	-11.33788630153013	0	59.99619893518472	1.047131210100489	-5.613107610066065	0	0	44.99097158756544	-11.33788630153013	0	59.99619893518472	1.047131210100489	-5.613107610066065	0	0	-31.64768300453437	5.055907484137283	-3.683746171873061	28.2247713735505	-17.65607318184529	3.469770221585189	28.94275470453011	2.426631372840479	0	0	0	-10.46648633692021	0	87.62143102253708	2.426631372840479	0	0
0.64	-0.1231401774966063	0.3587363619922512	-89.82909747991303	0	0.9399999998679526	0	44.99108219689174	-11.29857592338734	0	59.99624652247238	1.047132040655341	-5.591620846195504	0	0	44.99108219689174	-11.29857592338734	0	59.99624652247238	1.047132040655341	-5.591620846195504	0	0	-34.14385415096619	5.001530470343392	-2.079835262783465	32.02699319436239	-18.20117077501651	6.549912551659903	29.67188243789386	2.403882153238275	0	0	0	-10.50020576541096	0	87.64372774806273	2.403882153238275	0	0
0.65	-0.2401361495721169	-0.2045482043769453	-91.99201539234183	0	0.9399999998679526	0	44.99120218218113	-11.257067606071	0	59.99629830917933	1.047132944503886	-5.569134189072025	0	0	44.99120218218113	-11.257067606071	0	59.99629830917933	1.047132944503886	-5.569134189072025	0	0	-37.3379997282898	4.340025363365119	-0.3659876702212056	35.63033962738684	-18.22796977932977	9.088938545283204	30.83943080892254	2.379091942246792	0	0	0	-10.53706421030019	0	87.66802488252921	2.379091942246792	0	0
